{"title":"Cyrano de Bergerac (1990) HDTV-Rip XViD AC3 softsubs","uid":6448144,"size":2268350506,"categoryP":"video","categoryS":"movies","magnet":"?xt=urn:btih:dea028264f737df03dc956c036d7692adc05963a&amp;dn=Cyrano+de+Bergerac+%281990%29+HDTV-Rip+XViD+AC3+softsubs&amp;tr=udp%3A%2F%2Ftracker.openbittorrent.com%3A80&amp;tr=udp%3A%2F%2Fopen.demonii.com%3A1337&amp;tr=udp%3A%2F%2Ftracker.coppersurfer.tk%3A6969&amp;tr=udp%3A%2F%2Fexodus.desync.com%3A6969","seeders":1,"leechers":0,"uploader":"frogshare","files":3,"time":1307343975,"description":"Cyrano de Bergerac (1990)\n &lt;a href=&quot;\nhttp://www.imdb.com/title/tt0099334/&quot; rel=&quot;nofollow&quot; target=&quot;_NEW&quot;&gt;\nhttp://www.imdb.com/title/tt0099334/&lt;/a&gt;\n\nGenre: Comedy | Drama | History\nDirector: Jean-Paul Rappeneau\nStars: GÃƒÂ©rard Depardieu, Anne Brochet and Vincent Perez\nLanguage: French (original)\n\nIMDb rating: 7.6 (10,293 votes)\n\nWon Oscar.\n\nEmbarrassed by his large nose, a romantic poet/soldier romances his cousin by proxy.\n\n\nFormat                           : AVI\nDuration                         : 2h 17mn (137 minutes)\n\nCodec ID/Hint                    : XviD\nBit rate                         : 1 737 Kbps\nWidth                            : 720 pixels\nHeight                           : 432 pixels\nDisplay aspect ratio             : 1.667\nFrame rate                       : 25.000 fps\nStream size                      : 1.67 GiB (79%)\n\nFormat                           : AC-3\nBit rate mode                    : Constant\nBit rate                         : 448 Kbps\nChannel(s)                       : 6 channels\nChannel positions                : Front: L C R, Side: L R, LFE\nSampling rate                    : 48.0 KHz\nBit depth                        : 16 bits\nStream size                      : 441 MiB (20%)\n\nSubtitles: English (*.srt)\n &lt;a href=&quot;\nhttp://www.shotpix.com/images/81645402952452765770.jpg&quot; rel=&quot;nofollow&quot; target=&quot;_NEW&quot;&gt;\nhttp://www.shotpix.com/images/81645402952452765770.jpg&lt;/a&gt; &lt;a href=&quot;\nhttp://www.shotpix.com/images/02263266290039031395.jpg&quot; rel=&quot;nofollow&quot; target=&quot;_NEW&quot;&gt;\nhttp://www.shotpix.com/images/02263266290039031395.jpg&lt;/a&gt; &lt;a href=&quot;\nhttp://www.shotpix.com/images/04400653397581696737.jpg&quot; rel=&quot;nofollow&quot; target=&quot;_NEW&quot;&gt;\nhttp://www.shotpix.com/images/04400653397581696737.jpg&lt;/a&gt; &lt;a href=&quot;\nhttp://www.shotpix.com/images/96247995636081078406.jpg&quot; rel=&quot;nofollow&quot; target=&quot;_NEW&quot;&gt;\nhttp://www.shotpix.com/images/96247995636081078406.jpg&lt;/a&gt; &lt;a href=&quot;\nhttp://www.shotpix.com/images/49124614212481730209.jpg&quot; rel=&quot;nofollow&quot; target=&quot;_NEW&quot;&gt;\nhttp://www.shotpix.com/images/49124614212481730209.jpg&lt;/a&gt; &lt;a href=&quot;\nhttp://www.shotpix.com/images/75725909434925434185.jpg&quot; rel=&quot;nofollow&quot; target=&quot;_NEW&quot;&gt;\nhttp://www.shotpix.com/images/75725909434925434185.jpg&lt;/a&gt; &lt;a href=&quot;\nhttp://www.shotpix.com/images/90065121627711911409.jpg&quot; rel=&quot;nofollow&quot; target=&quot;_NEW&quot;&gt;\nhttp://www.shotpix.com/images/90065121627711911409.jpg&lt;/a&gt; &lt;a href=&quot;\nhttp://www.shotpix.com/images/99120347228681263070.jpg&quot; rel=&quot;nofollow&quot; target=&quot;_NEW&quot;&gt;\nhttp://www.shotpix.com/images/99120347228681263070.jpg&lt;/a&gt; &lt;a href=&quot;\nhttp://www.shotpix.com/images/24523327356372996105.jpg&quot; rel=&quot;nofollow&quot; target=&quot;_NEW&quot;&gt;\nhttp://www.shotpix.com/images/24523327356372996105.jpg&lt;/a&gt; &lt;a href=&quot;\nhttp://www.shotpix.com/images/57572059129447585623.jpg&quot; rel=&quot;nofollow&quot; target=&quot;_NEW&quot;&gt;\nhttp://www.shotpix.com/images/57572059129447585623.jpg&lt;/a&gt; &lt;a href=&quot;\nhttp://www.shotpix.com/images/78080949861462287655.jpg&quot; rel=&quot;nofollow&quot; target=&quot;_NEW&quot;&gt;\nhttp://www.shotpix.com/images/78080949861462287655.jpg&lt;/a&gt;\n","torrent":{"xt":"urn:btih:dea028264f737df03dc956c036d7692adc05963a","amp;dn":"Cyrano+de+Bergerac+%281990%29+HDTV-Rip+XViD+AC3+softsubs","amp;tr":["udp%3A%2F%2Ftracker.openbittorrent.com%3A80","udp%3A%2F%2Fopen.demonii.com%3A1337","udp%3A%2F%2Ftracker.coppersurfer.tk%3A6969","udp%3A%2F%2Fexodus.desync.com%3A6969"],"infoHash":"dea028264f737df03dc956c036d7692adc05963a","infoHashBuffer":{"type":"Buffer","data":[222,160,40,38,79,115,125,240,61,201,86,192,54,215,105,42,220,5,150,58]},"announce":[],"urlList":[]}}